<svg xmlns="http://www.w3.org/2000/svg" viewBox="0 0 410.07 593.35"><path d="M410.07,284.72c-4.89-3.68-10.13-7-14.59-11.11-11.22-10.44-22.06-21.28-33.09-31.92-5.36-5.18-11-10.11-16.17-15.44-8-8.14-17.84-13.22-27.78-18.35-9.13-4.71-17.87-10.18-27.09-14.68-6.23-3-13-5-19.53-7.37-5.16-1.83-10.58-3.05-15.54-5.32-3.07-1.4-5.48-4.25-8.18-6.44l1-2c5.87,1.41,11.87,2.43,17.58,4.3a273.47,273.47,0,0,1,100.8,59.26c12.74,11.68,26.87,22,36.11,37.07,2.06,3.37,4.29,6.63,6.45,9.94Z"/><path d="M66.19,124.18c-.39-5,2.26-7.84,5.79-9.42a121,121,0,0,1,15.91-5.7c8.78-2.52,17.33-5.14,25.55-9.59,5.87-3.18,13.35-3.74,20.21-4.63,8.57-1.12,17.25-1.32,25.88-2a19.45,19.45,0,0,0,6.33-1.34c16.66-7.56,33.88-4.2,51.14-3.46,15.09.64,28.55,7.51,43.23,9.17,9.93,1.12,20.12,1,29.76,3.26a246.3,246.3,0,0,1,37.33,12.08c20,8.27,37.81,20.2,54.43,34,3.25,2.7,7.48,4.21,11.25,6.27l1.09-1.54a14.32,14.32,0,0,0-1.91-3.11c-17.32-16.57-34.19-33.79-56-44.61C316.93,94,296,89.31,275.17,85.18c-15.91-3.15-32.29-4-48.49-5.54-10.08-1-20.2-1.51-30.32-2a36.1,36.1,0,0,0-7.9,1c-14.11,2.5-28.69,2.79-42.07,8.86a5.33,5.33,0,0,1-3.41.45,21.32,21.32,0,0,1-4.18-2.32c1-1.29,1.77-3.41,3-3.74,10.91-2.91,21.81-6,32.88-8.1,26.67-5.18,53-2.49,79.11,4.18a84.16,84.16,0,0,0,22.73,2.7c29.8-.78,56,9.06,79.41,26.59,15,11.24,30.52,22.13,41.86,37.53a69.94,69.94,0,0,1,6.36,10.1c.87,1.74,1.39,4.7.48,6s-3.95,1.45-5.8,1A41.48,41.48,0,0,1,388.12,158a116.26,116.26,0,0,1-16-10.2c-32.61-25.84-70.6-38.71-110.83-46-18.16-3.27-36.46-6.23-54.83-7.74-11.79-1-23.85.61-35.74,1.65a272.61,272.61,0,0,0-86.5,22.35c-4.7,2.07-9.71,3.46-14.58,5.13C68.74,123.57,67.76,123.77,66.19,124.18Z"/><path d="M107.21,363.68l8.58-18.57L114.6,344c-3,2.39-6.18,4.52-8.8,7.24-7.34,7.6-11.66,17-14.71,26.93C80.76,411.76,74,446.2,68.95,480.94c-3.53,24.28,2.08,47.68,9.7,70.63.71,2.15,1.38,4.31,2.22,7-4.51-.24-6.81-2.49-8.62-5.63-9-15.64-11.76-32.58-11.6-50.43.18-20.15,4.18-39.62,8.51-59.12,4.49-20.26,8.29-40.68,13-60.9,2.82-12.14,9.13-22.83,16.75-32.66,6-7.77,13.22-13.67,23.77-13.21,1.22-8.11,1.25-8.17,9.2-8.91,4.72-.44,8.51-2.18,11.3-6.33a16.44,16.44,0,0,1,5.68-4.59c18.37-10.3,38.71-14.67,58.78-20.2,16.67-4.6,30.36,1,44,8.55,23.88,13.14,41.95,32.63,57.92,54.24,11.77,15.92,23.05,32.19,34.77,48.14,4.52,6.16,9.53,12,14.54,17.75,3.73,4.31,5.62,9.05,4.39,14.66a5.65,5.65,0,0,1-2.77,3.6c-.77.32-2.69-1-3.52-2.1-11.46-14.65-23-29.23-34.1-44.18-4.42-6-7.58-12.87-11.46-19.26-13.08-21.51-28.37-41.68-48.08-57.09-22.06-17.25-47.5-24.51-75.43-13.43-9,3.55-18.34,6.17-27,10.36A112.68,112.68,0,0,0,113.56,361c-1,1.69-2.84,2.91-4.29,4.36Z"/><path d="M360.13,181.26c-2.4-2.57-4.36-5.88-7.26-7.6-30.49-18-61.93-34.09-96.92-41.28-41.49-8.52-83.06-10.09-123.71,4.42-12.62,4.5-24.48,11.14-36.75,16.67a68.78,68.78,0,0,1-11.16,4.16c-3.72.95-6.5-.55-7.35-5.32,1.5-.78,3-1.68,4.62-2.37,30.47-13.16,61.63-24.29,94.53-29.55A174.77,174.77,0,0,1,248,123.5c24.49,6.32,49.2,12.22,71.59,24.44,14.44,7.88,28.25,16.89,42.32,25.45a8.79,8.79,0,0,1,3.31,2.94c4.49,8.63,12.2,13.91,19.64,19.55,5.69,4.32,11.35,8.73,16.6,13.55,3.33,3.06,5.55,7.08,4.33,12.73-2.42-1.62-4.49-3.15-6.71-4.45-25.7-15.06-51-30.82-77.28-44.83-13.66-7.29-29-11.3-43.53-17.09-12.63-5-25.72-6.29-39.17-7.39-9.65-.79-19-5.47-28.45-8.52-1.12-.36-2-1.36-3.74-2.56,11.9-2.45,22.67-.87,33.41,1.34,32.1,6.6,63,16.75,92,32.12,6.41,3.39,12.34,7.68,18.74,11.11,2.24,1.2,5.19,1.06,7.82,1.53Z"/><path d="M27.88,281a45.06,45.06,0,0,1,2.65-4.23A22.71,22.71,0,0,1,34,273.18c26.5-21.54,53.56-42.25,85.52-55.3,3.11-1.27,6.83-1.07,10.27-1.54,18.14-2.47,36.3-4.76,54.4-7.47,14.38-2.16,28.49-.95,42.67,1.73,19.13,3.62,38.45,6.65,56.35,14.63,20.78,9.27,39.26,22.32,56.71,36.82,5.76,4.79,11.3,9.85,16.84,14.9,4.93,4.49,10.12,8.36,13,15.13,2.06,4.78,7.5,8.24,11.76,11.92,4.9,4.24,10.27,7.94,15.15,12.21,1.13,1,1.07,3.34,1.55,5.06-2.08.17-5,1.31-6.12.35-9.2-7.63-18.35-15.36-27-23.64-9.12-8.76-17.11-18.73-26.52-27.14-30.2-27-64.39-46.43-105.07-52.67-28.41-4.36-56.69-1.79-85.13.73-33,2.93-58.83,19.55-83.51,39.38-9.09,7.3-18.37,14.36-27.54,21.54C34.64,282,31.78,283.26,27.88,281Z"/><path d="M53.9,361.76c31.62-38.93,67.08-72.14,119.47-80.61,28.2-4.55,55.73-3,82.5,7.62,11.82,4.68,21.69,12.24,31.06,20.58,20.9,18.58,39,39.62,55.32,62.28,9.61,13.32,19.94,26.11,29.94,39.14a8.24,8.24,0,0,1,1.47,2c.65,1.88,1.1,3.83,1.63,5.76a51.34,51.34,0,0,1-8-.26c-1-.17-1.68-1.94-2.52-3-23.49-29.21-46.22-59.08-70.74-87.41-16-18.49-35.61-33.18-60.5-38.54-9.57-2.06-19.18-4-28.84-5.56-20.34-3.21-39.29,2.05-57.73,10.08-19.22,8.36-37.3,18.63-52.51,33.18-8.86,8.48-16.91,17.81-25.38,26.71a66.31,66.31,0,0,1-7.88,7.6c-1.74,1.31-4.27,1.56-6.45,2.29Z"/><path d="M41,155.74c21.29-16.21,43.85-30.3,70.08-36.92,21.26-5.37,43.11-8.47,64.22-14.33,14.66-4.07,28.79-1.72,43-.42,54.9,5,105.5,22.5,151.06,53.92,10.5,7.24,22.14,13,29.87,23.73,2.87,4,5.67,8,8.51,12l-1.36,1.63c-2.17-1.13-4.56-2-6.46-3.42-10-7.72-20-15.5-29.87-23.45-32.55-26.27-69.78-42-110.46-50.89-18.27-4-36.49-7.49-55.13-8.65-22.33-1.38-43.57,4.39-64.78,10.26-13.94,3.86-27.93,7.55-41.82,11.55a49.64,49.64,0,0,0-10,4.43c-9,5-17.8,10.48-27,15.12-6.12,3.08-12.81,5-19.24,7.47Z"/><path d="M203.75,36.12c18.36,2.48,37.42,3.83,55.87,7.94,14.65,3.26,28.92,9.06,42.69,15.25C322.92,68.55,343,79,363.16,89.24a115.09,115.09,0,0,1,17.52,11.25c3.36,2.57,6,6.22,8.51,9.7,1.69,2.34,3.58,5.35-.39,7.62-3.44,2-6.42.88-8.19-2.95-3.49-7.55-9.24-13-16.29-17.11-7.2-4.15-15.07-7.25-21.92-11.89-10.22-6.93-21.69-10.62-33-14.85-8.41-3.14-17-6.2-24.81-10.47-16.7-9.07-34.74-12.11-53.26-13.77-8.29-.75-16.53-2.35-24.82-2.63-6.59-.22-13.24,1-19.85,1.57-32.23,3-63.46,10-92.74,24.16-8.22,4-16,8.82-24.16,13-1.51.78-3.63.4-5.47.56.07-2.42-.43-5.06.4-7.18.62-1.59,2.83-2.76,4.57-3.67,3.68-1.92,7.45-3.69,11.28-5.29,25.82-10.73,51.77-21.24,79.49-26C174.22,38.88,188.71,37.86,203.75,36.12Z"/><path d="M314.88,526.33c2.3-10.1-1.82-18.06-8.68-24C288,486.76,277.36,466,266.09,445.7c-5.69-10.24-9-21.76-14.21-32.33-6.89-14.07-14.56-27.82-27.52-37.43-7.58-5.62-15.68-5.7-23.87-.92-12.13,7.07-18.34,18.18-19.1,31.57-.77,13.74.1,27.59.78,41.37.27,5.54,2.09,11,2.88,16.54a7.43,7.43,0,0,1-1.08,5.21c-.85,1-3.93,1.84-4.51,1.26-1.88-1.9-4.24-4.46-4.32-6.83-.61-19.12-1.31-38.27-.85-57.38.4-16.75,9.34-29.28,23.3-37.92,4.37-2.7,9.75-4.2,14.87-5.14,6.71-1.23,12.52,1.12,17.65,6,12.73,12.21,21.76,26.89,29.12,42.65C270,435.48,280.9,458.52,296,479.16c7.34,10,16,19,23.78,28.79a23.26,23.26,0,0,1,4.54,9.68C325.5,523.73,322.19,526.71,314.88,526.33Z"/><path d="M349.34,466.34c-9.48-12.51-18.85-24.58-27.87-36.91-3.52-4.81-6.28-10.17-9.38-15.29-.6-1-.94-2.25-1.76-3-10-8.87-16-20.45-21.3-32.29-9.85-21.8-26.36-37.85-44.63-52.27-14.5-11.44-30.77-14.68-48.89-9.26-20.34,6.08-39,14.58-52.4,31.81-2.25,2.88-4,6.15-6.49,8.84-2,2.25-4.93,5.4-7.84,2.28-1.11-1.19-.07-5.86,1.45-7.78,16.4-20.7,37.91-32.93,63.34-40,30.95-8.66,54.09,4.41,75.39,24C281.66,348.13,291,362.57,300,377.22,307.9,390,317.5,401.74,324.13,415c6.15,12.35,15.68,21.81,23.19,32.9a37,37,0,0,1,4.18,7.9C353,459.84,352.6,463.69,349.34,466.34Z"/><path d="M375.31,79.76c-3.16-1-6.55-1.56-9.46-3.06a656.11,656.11,0,0,0-92.2-39.29c-16.34-5.51-33.09-7.57-50.09-8.1-27.32-.86-54.69-.05-81.6,4.64-12.09,2.11-23.47,8.13-35.24,12.21a111.89,111.89,0,0,1-15.27,4.42c-4.23.82-5.34-.24-7.42-4.33a9.41,9.41,0,0,1,1.54-1c8.52-3.3,17.3-6,25.51-10C124.3,29,137.8,24.57,152.6,23.86c23.3-1.12,46.55-3.65,69.85-4,19.73-.33,39,3.94,57.45,11.35,25,10,50.37,19.16,75.23,29.51,8.44,3.51,14.6,10.92,21,17.45Z"/><path d="M299.78,260.93l-3.93-7.72.87-1c2,.95,4.15,1.61,5.85,2.9,6.9,5.22,13.68,10.62,20.47,16,5.46,4.33,11.19,8.4,16.2,13.21a61,61,0,0,1,10,12.77c2.05,3.46.2,5.59-3.79,4.67-2.78-.64-6.23-1.71-7.79-3.78-12.92-17.22-30.52-27.38-50.23-34.72C275,258.59,263,252.72,250.34,248.8c-25.33-7.85-51.51-8-77.76-6.69C134.63,244,104,261.5,76.63,286.29c-1.88,1.7-4.52,2.52-6.62,4a90,90,0,0,0-10.51,8.1c-3.46,3.33-6,7.59-9.58,10.83-2.19,2-5.43,2.87-8.2,4.25l-1.22-1.65c3-3.93,5.44-8.38,9-11.71,20.65-19.45,42.08-38.12,68.28-49.71,30-13.28,61.81-19,94.56-15.48,13.79,1.47,27.22,6.13,40.88,9,12.11,2.53,22.71,8.34,33.42,14.1,3.91,2.11,8.37,3.2,12.59,4.76Z"/><path d="M236.24,158.45c23.57-.47,39.82,4.76,55.61,10.87,27.87,10.78,54.43,24.13,77.74,43.27,7.59,6.23,16.12,11.39,23.29,18,5.37,5,9.41,11.45,13.68,17.52.87,1.24.13,3.61.14,5.45-2-.69-4.8-.76-5.94-2.16C389,236.93,375,225,359.61,214.5c-27.89-19-57.06-35.61-89.61-45.35-17.55-5.25-35.21-5.35-53.28-1.31-12.59,2.82-25.69,3.75-38.62,4.54-15.32.93-28.93,7.2-43.05,12-6.76,2.3-13.49,4.73-20.36,6.66-1.58.44-3.67-.94-5.52-1.48,1.3-1.24,2.39-3.07,3.94-3.64,17-6.33,33.68-13.6,51.1-18.28,12.87-3.46,26.68-3.4,40.06-5C217,161,229.66,159.31,236.24,158.45Z"/><path d="M141.55,392.08c1.8-4.38,3.22-9,5.45-13.1,9.73-18.1,25.09-30,43.56-38,7.16-3.1,14.91-1.8,21.88,1.39,6,2.76,11.48,6.69,17.38,9.72,22.12,11.34,34.56,31,45.27,52.19,8.62,17.08,16.75,34.47,26.47,50.9,6.2,10.49,14.89,19.51,22.5,29.15,5.71,7.25,11.17,14.64,15,23l-1.27,1.43c-2.74-1.8-6-3.13-8.12-5.48-8.51-9.36-16.61-19.11-25-28.59-13.32-15-21.09-33.41-30.53-50.76-7-12.85-13.07-26.21-20.3-38.92-10-17.56-26.57-27.68-44.06-36.17-9.2-4.47-17.68-2.3-26.64,3.48-13.64,8.81-22.2,21.86-32.47,33.55-2.3,2.62-5,4.85-7.59,7.25Z"/><path d="M34.18,496.2c-8.06-7.59-9.54-16.79-7.66-26.77A53.12,53.12,0,0,1,30.27,457a247.77,247.77,0,0,0,18-55.3c2.58-12.8,7.72-24.92,16.82-34.64,11.12-11.88,22.66-23.36,34.22-34.82,2.9-2.87,6-6.23,11.82-5.18-4,4.37-7.74,8.12-11.14,12.14-6,7.11-12.22,14.11-17.65,21.65C75,371.07,71.5,382.65,69.81,395.17c-1.46,10.81-4.82,21.38-7.65,32C56.6,448,55,469.38,53.95,490.88c-.6,12.72-2.44,25.37-3.72,38.06H47.86c-.59-3.36-1.68-6.71-1.66-10.07,0-7.14.63-14.28,1.06-21.41.67-11.26,1.75-22.52,2-33.79.42-19.23,5.53-37.43,11.28-55.54,2.22-7,4.54-13.91,6.74-20.88a19.26,19.26,0,0,0,1.31-5.8c0-1.59-1.07-3.17-1.66-4.76-1.38.74-3.28,1.13-4,2.28A29.67,29.67,0,0,0,59,387c-5.79,20.28-10.31,41-17.52,60.76-3.88,10.64-1.28,19.41,1,29S42.58,491.55,34.18,496.2Zm-4.44-11.12c7.07.37,8.75-1.36,7.47-7.71C33.08,478.45,30.59,480.7,29.74,485.08Z"/><path d="M223.32,339l12.73.83.39-1a24.91,24.91,0,0,0-2.74-2.34c-13.65-8.68-28.15-8.48-42.7-3.24-17,6.14-32.18,15.36-42.81,30.56-6.39,9.13-12.93,18.22-18.5,27.85-8.14,14.06-9.35,29.81-8,45.56,1.31,15.53,3.79,31,5.75,46.45.19,1.48.84,3.09.48,4.42-.49,1.8-1.74,3.4-2.67,5.09-1.74-1.44-4.66-2.63-5-4.37-2-9.26-3.63-18.63-4.85-28-2.07-16.07-3.59-32.35.36-48.21,8-32,25.71-57.81,53-76.12,13.1-8.8,28.22-14.19,44.67-14,8.85.12,16.44,3.42,23.77,8,10.16,6.36,19.1,14,25.34,24.32,2.35,3.9,4,8.08,1.07,13.48C252,355.65,237.92,347.14,223.32,339Z"/><path d="M153.84,273.81a47.75,47.75,0,0,1,6.84-2.1c13.49-2.07,27-4,40.5-6,24.78-3.66,47.52,3.29,69.47,13.69,20.63,9.77,37.87,23.85,52.46,41.47,13.49,16.29,27.85,31.85,41.5,48,5.36,6.34,9.94,13.35,14.6,20.25,1,1.53.91,3.84,1.31,5.79-2.37,0-5,.53-7-.3-1.77-.72-3-2.94-4.27-4.67-20.54-28.38-42.21-55.72-68-79.65-22.57-20.91-48.44-34.33-79.09-38.15a130.23,130.23,0,0,0-48.57,2.92c-6.46,1.64-12.92,2.55-19.37.42Z"/><path d="M204.14,474.95c-4.47,1.05-6.41-1.31-7.24-4.3-1.33-4.78-2.16-9.7-3.07-14.59-1.79-9.62-4-19.21-5.09-28.92a57.62,57.62,0,0,1,6.65-35.26c7-12.5,20.75-14.33,31-4.29,7.9,7.74,13.09,17.23,16.81,27.47,9.44,25.95,21.73,50.46,38,72.74,7.81,10.7,17.45,20.05,26.32,30,1.4,1.57,3.06,2.92,5.51,5.21a17.57,17.57,0,0,1-12.47-3.25c-16.31-11.46-28.55-26.59-37.61-44-9-17.25-16.73-35.12-25-52.74-3.49-7.47-6.31-15.32-10.42-22.42-2.22-3.85-6.17-7-9.95-9.6-6.88-4.73-13.44-3.07-17.91,4.06-5.87,9.37-5.56,19.82-4,30.05,2.1,13.46,5.24,26.76,7.75,40.16C204.07,468.38,203.94,471.7,204.14,474.95Z"/><path d="M20.5,316.72A51.63,51.63,0,0,1,35,292.77c6.91-6.46,14.47-12.25,22-18.06,9.73-7.54,20-14.44,29.45-22.28,19.65-16.25,42.36-23.74,67.44-25.65,9.74-.74,19.35-3.13,29.08-4.15,22.72-2.37,44.81,1.51,66.61,7.52q12.75,3.51,25.35,7.52A42.47,42.47,0,0,1,284.4,242c1.45.9,2.14,3,3.17,4.59l-1.13,1.31c-2.49-.62-5-1.14-7.46-1.89-14.94-4.57-29.7-9.88-44.84-13.62-15.76-3.89-31.71-8.35-48.27-5.64-12.14,2-24.1,5.23-36.29,6.7-24.82,3-46,14-65.67,28.46C72.47,270.31,61,278.7,50.22,287.83c-5.11,4.32-8.83,10.33-13,15.69C32.87,309,28.56,314.49,20.5,316.72Z"/><path d="M182.88,257.85c10.69-8.22,22.51-9.23,34.61-7.78a197.86,197.86,0,0,1,84,29.72c9,5.77,16.69,13.68,25.25,20.25,19.22,14.76,32.25,34.87,46.94,53.56,3.29,4.18,7,8,10.57,12,.66.75,1.8,1.42,1.91,2.24a50.74,50.74,0,0,1,.13,6.42c-2-.64-4.62-.68-5.75-2C372,362,364,351.35,355.3,341.23c-17-19.94-35-39.33-56.74-53.92-19.89-13.36-41-25.65-65.92-28.14a5.77,5.77,0,0,1-2-.23c-10.49-5.41-20.75-2-31.08.63C191.16,261.72,188.08,261.34,182.88,257.85Z"/><path d="M214.66,152.18c-4.75,1.11-9.52,3.25-14.26,3.18-42.64-.63-79.45,17.34-116,36.08-13.61,7-27.18,14.22-40,22.47C30.7,222.69,17.86,232.82,3.64,242c1.61-3.38,2.55-7.39,5-10,4.93-5.31,10-11,16.2-14.54C63.54,195,102,171.91,144.56,157.22A149.63,149.63,0,0,1,213,150a4.86,4.86,0,0,1,1.29.59Z"/><path d="M64.08,231.83c2.87-2.18,5.52-4.74,8.63-6.47,25.25-14.05,49.66-30,77.69-38.2,12.37-3.62,25.32-5.26,38-7.79,4.39-.87,8.79-2.38,13.2-2.41,9.09-.07,18.6-.89,27.19,1.4,16.65,4.43,32.8,10.77,49.13,16.41a35.34,35.34,0,0,1,5.06,2.7l-.43,1.49c-3.72-.74-7.59-1-11.13-2.28-39.79-14.14-80.2-14.14-120.43-3.45-13.91,3.7-26.75,11.67-39.82,18.22-11.45,5.74-22.43,12.4-33.82,18.26-3.85,2-8.32,2.74-12.51,4.05Z"/><path d="M289,543.93c-3.36,3.47-7.3,3.08-10.4.57-14.93-12.07-32.2-21.61-43-38.24-19.69-30.34-31.49-63.29-32.1-99.78,0-1.8,1.38-3.61,2.11-5.42,1.49,1.53,3.8,2.83,4.3,4.64,1.28,4.62,1.65,9.48,2.58,14.2,3.84,19.39,7.92,38.72,17.5,56.34a45.8,45.8,0,0,1,4.07,9.09c2.86,10,9.45,17.38,16.89,24.15C263.48,520.89,276.08,532.26,289,543.93Z"/><path d="M122.65,369.4c-2.38,6.68-5,13.29-7.08,20.06-3.38,11.11-8.2,22.19-9.11,33.54-1.18,14.77-.23,30,1.77,44.69,4.72,34.58,15.35,67.36,33.43,97.47,3.14,5.23,6.09,10.57,12.55,12.85,1.5.53,2,3.77,3,5.76-2.4.38-4.81,1.12-7.18,1-1.19-.07-2.46-1.6-3.41-2.71-21.36-24.7-33-53.9-39.49-85.48-4.47-21.71-8.57-43.45-7.08-65.81,1-15.53,3.09-30.87,10-45,2.95-6,7-11.51,10.62-17.24Z"/><path d="M197.68,138.08c-3.8.88-7.56,2.26-11.4,2.57-36.23,3-69,16.07-100.49,33.35C73.12,181,60,187,47.44,194.2c-12.82,7.38-25.11,15.66-37.63,23.56-1.67,1.06-3.32,2.15-5,3.23l-1.22-.84c2.21-3.67,3.81-8,6.76-10.88,4.67-4.64,9.71-9.43,15.52-12.31,34.68-17.22,69.39-34.42,104.57-50.57a124.5,124.5,0,0,1,57.7-11.56,90.27,90.27,0,0,1,9.47,1.39Z"/><path d="M339.1,231.62c-2.11,0-2.72.19-3.06,0-15.68-10-33.5-13.21-51.39-16.61-15.83-3-31.33-7.79-47.17-10.7-23.51-4.32-47.2-6.3-70.85-.39-7.25,1.81-14.48,3.81-21.82,5.21-3.48.66-7.19.11-10.8.11l-.34-1.8c8.61-2.55,17.15-5.34,25.83-7.61,36.28-9.48,72.24-7.24,107.94,3.24,18,5.28,36.09,10.3,54,15.91,5,1.56,9.54,4.66,14.06,7.43C336.93,227.26,337.6,229.35,339.1,231.62Z"/><path d="M142.79,593.35c-18-9-28.07-24.69-36.76-42-9.21-18.3-11.25-38.07-14-57.84-1.83-13.13-4.64-26.13-7.1-39.17a57.07,57.07,0,0,1,1.72-29,2,2,0,0,1,.4-.9c1.41-1.16,2.86-2.28,4.29-3.41.53,1.71,1.5,3.43,1.51,5.14.08,10.28-1.07,20.69.11,30.82,1.85,15.83,5.93,31.4,7.75,47.24,1.86,16.14,7,31.07,13.4,45.72a104.18,104.18,0,0,0,21.62,32.11c3.06,3.08,5.36,6.92,8,10.42Z"/><path d="M223.17,426c5.25-.7,8.47,1.59,10,5.66,2.25,6.06,4,12.32,5.8,18.52,2.23,7.52,4,15.28,12.14,19.07a4.11,4.11,0,0,1,1.51,2.44c8.4,27.84,28.17,45.61,52.46,59.43a32.15,32.15,0,0,1,6.83,4.88,4.91,4.91,0,0,1,.72,4.4c-.33.83-2.61,1.43-3.86,1.22a15,15,0,0,1-6-2.3c-9.39-6.61-18.74-13.28-27.93-20.16-20.13-15.07-30.68-36.93-40.66-58.94-4.57-10.08-7.41-21-11-31.48A9.9,9.9,0,0,1,223.17,426Z"/><path d="M131.11,264.43c-1.66,1.68-3.09,3.73-5,5-6.73,4.28-13.49,8.58-20.52,12.33-10.86,5.79-20.17,13.43-28.78,22.12-9.13,9.22-18.55,18.15-27.84,27.21a9.15,9.15,0,0,0-1.66,1.85C36.66,351.49,22,367.69,14.83,388.34c-.68,2-2.86,3.43-4.34,5.12l-1.75-.87c.54-3.65.59-7.48,1.75-10.92,1.75-5.17,3.6-10.52,6.6-15,18.37-27.43,37.43-54.3,63.58-75.2,13.44-10.75,27.6-20.33,43.15-27.75,1.91-.91,4.31-.77,6.49-1.12Z"/><path d="M347.53,485c-6.88,2.17-10.21,1.31-13.43-3.28-13.21-18.8-26.85-37.34-39.36-56.6-7.67-11.82-13.8-24.67-20.17-37.29-2.11-4.18-4.34-9-.48-14.93,4,5.5,8,10.17,11,15.39q9.94,17,19.05,34.53c8.61,16.49,19.51,31.35,31.18,45.74C339.53,473.7,343.26,479.2,347.53,485Z"/><path d="M141,401.79c-.6,3.89-.78,6.61-1.45,9.2-5.26,20.33-5.37,40.79-1.92,61.4.45,2.7.9,4.86,4.35,4.68,3.62-.19,4.61-2.66,4.32-5.48-.66-6.44-1.75-12.83-2.61-19.24a52.41,52.41,0,0,1-.68-6.93c0-5.06,1.13-5.92,6.76-5.26.32,5.86.79,11.79.92,17.74.26,11.31.3,22.63.48,33.94,0,1.29-.1,2.86.57,3.8,2.81,4,.4,5.6-2.77,7.21-3.62,1.84-5.2.36-6.67-3a157.78,157.78,0,0,1-13.24-63,52.53,52.53,0,0,0-.81-8.87C126.93,420.11,132.76,406.76,141,401.79Z"/><path d="M276.37,560.18c-3.08-.87-6.43-1.25-9.2-2.7-21.33-11.2-39.07-27-55.33-44.49a12.45,12.45,0,0,1-.5-16.85c3.38-3.73,8.23-3.45,9.44,1.27,4.78,18.71,19.48,28.61,33.45,39.4,6.81,5.27,13.06,11.27,19.46,17.06a30.75,30.75,0,0,1,3.52,4.62Z"/><path d="M71.88,39C75.92,33,81.62,29,88,26.16A347.58,347.58,0,0,1,175.22.34c4.51-.71,9.24-.1,13.86-.1l.35,1.37c-3,1.33-5.93,3.08-9.08,3.93-11.87,3.22-23.71,6.65-35.75,9.08a215.82,215.82,0,0,0-49,16.58c-7.46,3.49-15.33,6.1-23,9.11Z"/><path d="M352.65,47.9c-3.55-.84-7.46-1-10.6-2.63-24.33-12.71-50.67-20.19-76.42-29.1-8.66-3-18.36-2.94-27.56-4.42-2.7-.43-5.32-1.36-8-2.06L230,7.78c4.22-.71,8.45-2,12.67-2,13.87,0,26.8,4.59,39.73,9,13.69,4.67,27.68,8.55,41.06,14,9.47,3.83,18.17,9.58,27.15,14.59,1.13.63,1.84,2,2.75,3Z"/><path d="M284.67,72.42a48.23,48.23,0,0,1-6.07-.54c-25.61-5.49-51.4-9.47-77.68-9.05-6.65.11-13.31,1-19.94.81-4.27-.12-8.5-1.57-12.75-2.43L168.15,59c2.53-.72,5-1.92,7.59-2.08,27.29-1.7,54.61-2.75,81.69,2.14a71.94,71.94,0,0,1,27.64,11.63Z"/><path d="M13.81,470.09c.61-4.64.59-9.48,2-13.87,2.56-8.06,6-15.82,8.94-23.77a44.19,44.19,0,0,0,2.4-9.62c.23-1.87-.72-3.89-1.72-5.85-4,6-6.45,12.8-13.61,17.3-.21-5.55.26-10.24,3.58-13.3,8.88-8.18,14.63-18.43,20.54-28.67,3.8-6.58,7.87-13,11.82-19.51l1.28.53c-.35,1.42-.65,2.87-1.07,4.27-8,26.55-16.06,53.11-24.23,79.61-1.55,5-3.22,10.16-8,13.29Z"/><path d="M162.38,426.76c.58,3.86,1.23,7.71,1.74,11.58,2.34,17.61,4.21,35.3,7.2,52.81,1.06,6.21,5.15,11.84,7.18,18,1.46,4.42,2,9.2,2.51,13.86.14,1.16-1.22,2.5-1.89,3.75-1.32-.81-3-1.33-3.89-2.47-8.47-10.91-13.85-23.37-14.75-37-1.13-17.24-1-34.56-1.18-51.85,0-2.86.94-5.74,1.44-8.61Z"/><path d="M405.89,303.75c-9.54-2.73-61.33-47.76-75.15-65.83,3.83.86,8.22.81,11.37,2.77a135.83,135.83,0,0,1,19.38,14.52c5.27,4.77,9.36,10.82,14.35,15.93,4.38,4.48,9.2,8.54,14,12.61C396.13,289.1,401.7,295,405.89,303.75Z"/><path d="M202,583.85c-3.38-.9-7-1.26-10.09-2.81a55.14,55.14,0,0,1-24-24c-6.92-13.23-13.13-26.85-19.19-40.5-.73-1.64.86-5,2.4-6.65.76-.79,4.66,0,5.73,1.22a41.81,41.81,0,0,1,6.92,10.85c3.74,9,7.61,18.14,10.06,27.57,2.68,10.33,8.39,17.87,16.84,23.81,4.06,2.86,8.06,5.8,12.08,8.7Z"/><path d="M159.64,575c-2.4-2.68-4.14-4.39-5.61-6.3-8.2-10.67-13.48-22.85-18-35.39-2.69-7.5-5.32-15-7.72-22.63a25.75,25.75,0,0,1-1.15-8.31c0-1.74,1.35-3.44,2.09-5.15,1.61,1,3.91,1.66,4.68,3.12,1.74,3.31,3.84,7,3.78,10.55-.15,7.71,2.46,14.35,5.88,20.83,3.72,7.05,7.85,13.88,11.62,20.91C158.7,559.14,161.25,565.93,159.64,575Z"/><path d="M8.17,410.9C23.35,386.84,38,363.07,53.26,339.75c5.64-8.59,13.52-15.45,22.37-20.88l1.37.65c-1.13,2.69-1.75,5.81-3.51,8a125.07,125.07,0,0,1-13.12,14.35,98,98,0,0,0-26,37.88,128.11,128.11,0,0,1-9.83,19.57A23.51,23.51,0,0,1,8.17,410.9Z"/><path d="M396.12,339.94l-15.38-5-1.15,1.6c3.82,8.09,13.21,13,13.47,23.82-2.54-1.76-5.72-3-7.51-5.38-9.7-12.65-19.07-25.56-28.51-38.41-2-2.66-3.75-5.43-5.78-8.38C360.39,308,384.45,325.18,396.12,339.94Z"/><path d="M212.61,527.94l-3.7,6.87c-16.46-10.45-26.44-24.37-28-43.67-.35-4.46.88-8.54,5.53-12.13,1.89,4.08,3.93,7.76,5.34,11.68,1.74,4.83,2.9,9.86,4.4,14.77C199,514.57,203.25,522.67,212.61,527.94Z"/><path d="M10.89,283.22c-4.64-5.26-5-8-.9-11.91a107.49,107.49,0,0,1,12.54-9.82c7.3-5.19,14.72-9.92,19.95-17.78,2.3-3.46,7.94-4.87,12.29-6.65,1.14-.47,3.64.76,4.55,1.95.56.73-.31,3.2-1.24,4.29a19.84,19.84,0,0,1-6,5.19C39.91,254.31,30.93,264,21.56,273.19,18.14,276.56,14.57,279.76,10.89,283.22Z"/><path d="M79.38,466.6c1,1.45,2.44,2.78,2.77,4.36a35.93,35.93,0,0,1,.87,9.39c-.92,16.16,2.29,31.71,6.47,47.15a34.35,34.35,0,0,1,1.61,7.79c.06,2.07-1,4.18-1.49,6.27-2.42-1.44-6.11-2.33-7-4.42a43.3,43.3,0,0,1-3.8-15.39c-.44-18.08-.17-36.18-.17-54.27Z"/><path d="M88.11,85.05c-.19,6.36-3.21,11.88-7.79,16.68a3.14,3.14,0,0,1-2.21.84c-11.06-.76-20.24,4.55-29.66,9.07-6.87,3.3-13.74,6.62-21.45,9.09.7-1.12,1.16-2.54,2.13-3.32,5.28-4.25,10.22-9.25,16.15-12.3C59.26,97.94,73.73,91.72,88.11,85.05Z"/><path d="M199.11,290.86c-.92.59-1.78,1.56-2.75,1.69-28.87,3.68-53.23,19.74-79.69,30l-1-1.72c2.78-2.42,5.26-5.39,8.42-7.16,6.5-3.64,13.32-6.72,20.08-9.89,7.81-3.66,15.66-7.21,23.53-10.74,9.21-4.13,18.88-5,28.81-3.92a5.92,5.92,0,0,1,1.86.68C198.6,289.94,198.71,290.29,199.11,290.86Z"/><path d="M99.8,199.54A89.05,89.05,0,0,1,92,204.86c-8.58,4.69-17.4,9-25.89,13.81-5.76,3.28-11,7.53-16.73,10.79-3.54,2-7.67,2.92-11.85,3.57,14.41-18.12,35.11-26.3,54.79-36,1.76-.87,4.6.44,6.93.74Z"/><path d="M3.32,193.91c5.3-4.25,9.34-8.48,14.23-11.17,7.25-4,15.21-6.67,22.66-10.33,6.39-3.14,12.48-6.88,18.73-10.31,2.46-1.35,4.9-2.92,7.55-3.71,1.44-.43,4.38.15,4.74,1a6.38,6.38,0,0,1-.82,5.27,12.76,12.76,0,0,1-5.15,3.75Q35.64,181.52,5.93,194.36C5.7,194.45,5.35,194.27,3.32,193.91Z"/><path d="M81.05,313.08c3.79-4.26,7.08-9.18,11.5-12.63,6.5-5.08,13.78-9.19,20.81-13.56,6.75-4.2,13.62-8.21,20-12.07l7.8,7.3c-23,4-37.6,23.9-58.62,32.58Z"/><path d="M183.41,529.9c4.54,2.06,9.57,3.45,13.52,6.33,7,5.09,13.16,11.21,19.86,16.67,5.53,4.51,11.46,8.52,16.94,13.08a31.65,31.65,0,0,1,6.47,8.13c-25.48-6.13-39.14-27.53-57.61-42.61Z"/><path d="M155.77,64c-2.83,2.21-5.37,5.11-8.56,6.46-5.31,2.25-11.17,3.17-16.56,5.26a178.11,178.11,0,0,0-16.5,7.74c-4.18,2.13-8.34,2.74-13.87,1.08C115.62,68.77,135.06,65.47,154.45,62Z"/><path d="M253.77,565.32c-3-1.17-6.2-1.94-8.88-3.59q-12.28-7.49-24.16-15.61a13.53,13.53,0,0,1-4.23-5.43,5.12,5.12,0,0,1,.68-4.37c.44-.6,3-.49,3.88.21,10.83,8.53,21.52,17.23,32.23,25.91a7.62,7.62,0,0,1,1.14,1.53Z"/><path d="M209.91,573.58c-12.16-5.51-21.72-12.91-28.42-23.66-1.72-2.75-2.67-5.93,1.84-8.16,3.89,9,12.33,13.43,19.33,19.36C206.23,564.15,210.44,566.94,209.91,573.58Z"/><path d="M73.43,56.35C71.16,63.68,55.63,72.73,43,74.41,44.5,64.92,62.28,54.21,73.43,56.35Z"/><path d="M19.07,140.5c6.25-11.89,25.47-20.32,35.06-15.46C44.31,134.36,31.68,136,19.07,140.5Z"/><path d="M163.14,407c-4.33-10.06,3.29-30.9,13-35.25.29,2,1.29,4.17.69,5.64-3.74,9.2-7.82,18.26-11.84,27.35A12.79,12.79,0,0,1,163.14,407Z"/><path d="M138.54,258.87c8.73-8.47,37.2-15,44-9.57C168.21,255.25,153.45,256.21,138.54,258.87Z"/><path d="M11.43,162.35c3.27-8.77,19.6-18.63,28.52-17.48C37.77,152.6,21.27,162.86,11.43,162.35Z"/><path d="M17.84,322.34c.06.15.22.35.18.44-3.5,6.79-6.91,13.65-10.71,20.27-.44.77-3.93,1-4.53.24C1.34,341.54,0,339.05,0,336.87,0,330.05,10.75,321.6,17.84,322.34Z"/><path d="M7,257.39c.71-8.81,15.61-19.68,25.65-19C31,243.89,12.59,257.79,7,257.39Z"/><path d="M22.66,339.62a16.26,16.26,0,0,1-.82,3.44c-3.59,6.69-7,13.49-11,19.92-1.26,2-4.15,3-6.73,4.8C2.21,358.57,12.55,343.39,22.66,339.62Z"/><path d="M137.94,269.8c10.68-9,23.35-9.47,36.43-8.21C162.19,264.16,151.34,272.13,137.94,269.8Z"/><path d="M206,356.69a22.72,22.72,0,0,1-3.47,2.79c-5,2.58-10,5.24-15.19,7.38-1.55.64-3.75-.31-5.66-.54.63-1.7.81-3.84,2-5C188.87,356.06,200.26,353.69,206,356.69Z"/><path d="M105.86,571.87c4.9,5.9,9.86,11.76,14.64,17.76.5.62.08,3-.14,3-1.85.28-4.41,1-5.53.11-6.26-5.07-9.71-11.83-10.94-19.63Z"/><path d="M56.29,89.46c-1.73.95-3.32,1.95-5,2.71-3.09,1.39-6.29,2.56-9.37,4S37.2,97,37,93.42c-.22-4,1.31-6.66,5.17-8A12.52,12.52,0,0,1,56.29,89.46Z"/><path d="M92.64,399.76a52.53,52.53,0,0,1,11.47-26,18,18,0,0,1,0,4c-1.31,5.64-2.59,11.31-4.26,16.85C98.56,398.67,97.25,399.4,92.64,399.76Z"/><path d="M151,400.26c2.8,8.65,1.5,17.05-.62,25.38-.25,1-1.73,1.68-2.64,2.5-.56-.69-1.58-1.35-1.61-2.06C145.71,417.12,146.88,408.41,151,400.26Z"/><path d="M26.17,331.62C26.06,326.22,31.9,320,36.34,320c2.66,0,3.29,1.53,2,3.56a102.62,102.62,0,0,1-6.8,9.69c-.65.82-2.62,1.46-3.43,1.05C27,333.77,26.51,332.14,26.17,331.62Z"/><path d="M218.35,401.2c5.75,3.8,8.31,12.52,5.1,17.33C217.19,415,214.51,405.85,218.35,401.2Z"/><path d="M208,492.84c-6.1,0-7.17-3.08-6.85-6.39.15-1.56,1.9-3.92,3.29-4.22,3.08-.65,9.07,4.28,8.12,6.51C211.63,490.82,208.87,492.08,208,492.84Z"/><path d="M92.77,98.69c-.54-3.14,1.31-5.53,4.35-7.21,4.5-2.49,10-1.65,14.05,2.45Z"/><path d="M92,413.59c-1.73-2.28-3.43-3.54-3.49-4.86s1.62-2.59,2.53-3.89l4.9,4.4Z"/><path class="cls-1" d="M29.74,485.08c.85-4.38,3.34-6.62,7.47-7.71C38.49,483.71,36.81,485.45,29.74,485.08Z"/></g></g></svg>
