<svg xmlns="http://www.w3.org/2000/svg" viewBox="0 0 149.19 149.19"><title>Asset 1</title><g id="Layer_2" data-name="Layer 2"><g id="Layer_1-2" data-name="Layer 1"><path d="M74.59,125.88A49.62,49.62,0,0,0,106.5,114.8a50,50,0,0,0,17.92-28.26,3.24,3.24,0,0,1,1.31-1.89,3.69,3.69,0,0,1,2.19-.73h14.28a3.51,3.51,0,0,1,3.5,4.08,71.19,71.19,0,0,1-13.4,30,73.59,73.59,0,0,1-25.2,21.13,70,70,0,0,1-32.49,7.72,71.11,71.11,0,0,1-30.6-6.7,72.08,72.08,0,0,1-24.48-18.65l1.17,23.89a3,3,0,0,1-.73,2.77,3.74,3.74,0,0,1-2.77,1H3.5a3.37,3.37,0,0,1-2.48-1,3.37,3.37,0,0,1-1-2.48V87.41a3.37,3.37,0,0,1,1-2.48,3.37,3.37,0,0,1,2.48-1H61.77a3.48,3.48,0,0,1,3.5,3.5v13.69a3.48,3.48,0,0,1-3.5,3.5l-29.72-1.46a50.75,50.75,0,0,0,18.21,16.61A50,50,0,0,0,74.59,125.88ZM128.5,3.79a3.74,3.74,0,0,1,1-2.77A3.37,3.37,0,0,1,132,0h13.69a3.37,3.37,0,0,1,2.48,1,3.37,3.37,0,0,1,1,2.48V61.77a3.48,3.48,0,0,1-3.5,3.5H87.41a3.48,3.48,0,0,1-3.5-3.5V48.08a3.37,3.37,0,0,1,1-2.48,3.74,3.74,0,0,1,2.77-1L117.14,46A50.75,50.75,0,0,0,98.92,29.43a50,50,0,0,0-24.33-6.12A49.62,49.62,0,0,0,42.69,34.38,50,50,0,0,0,24.77,62.65a3.24,3.24,0,0,1-1.31,1.89,3.69,3.69,0,0,1-2.19.73H7A3.32,3.32,0,0,1,4.23,64a3.3,3.3,0,0,1-.73-2.77,71.19,71.19,0,0,1,13.4-30A73.59,73.59,0,0,1,42.1,10.05,70,70,0,0,1,74.59,2.33,71.11,71.11,0,0,1,105.19,9a72.08,72.08,0,0,1,24.48,18.65Z"/></g></g></svg>